<svg width="286" height="79" viewBox="0 0 286 79" fill="none" xmlns="http://www.w3.org/2000/svg">
<path d="M0 43.7031C0 37.6243 3.86069 32.8089 9.91022 32.2126C23.7939 30.8442 47.8171 29.3568 56.4017 27.9231C58.5747 27.5602 60.4606 26.2132 61.746 24.4239C64.5264 20.5534 67.5663 14.428 70.1538 11C70.4542 19.8753 69.0577 26.2484 70.7546 28.7506C102.211 28.3812 153.329 29.289 198.068 32.7476C204.263 33.2265 209 38.4187 209 44.6322V56C209 62.6274 203.627 68 197 68H15C6.71572 68 0 61.2843 0 53V43.7031Z" fill="#BC372F"/>
<path d="M24.735 42.35V53H23.7V48.02H17.385V53H16.335V42.35H17.385V47.09H23.7V42.35H24.735ZM30.412 53.15C29.852 53.15 29.332 53.045 28.852 52.835C28.382 52.615 27.972 52.32 27.622 51.95C27.282 51.57 27.017 51.14 26.827 50.66C26.637 50.17 26.542 49.655 26.542 49.115C26.542 48.555 26.637 48.035 26.827 47.555C27.017 47.065 27.287 46.635 27.637 46.265C27.987 45.885 28.397 45.59 28.867 45.38C29.347 45.16 29.867 45.05 30.427 45.05C30.987 45.05 31.502 45.16 31.972 45.38C32.442 45.59 32.852 45.885 33.202 46.265C33.552 46.635 33.822 47.065 34.012 47.555C34.202 48.035 34.297 48.555 34.297 49.115C34.297 49.655 34.202 50.17 34.012 50.66C33.822 51.14 33.552 51.57 33.202 51.95C32.862 52.32 32.452 52.615 31.972 52.835C31.502 53.045 30.982 53.15 30.412 53.15ZM27.577 49.13C27.577 49.71 27.702 50.24 27.952 50.72C28.212 51.19 28.557 51.565 28.987 51.845C29.417 52.115 29.892 52.25 30.412 52.25C30.932 52.25 31.407 52.11 31.837 51.83C32.267 51.55 32.612 51.17 32.872 50.69C33.132 50.2 33.262 49.67 33.262 49.1C33.262 48.52 33.132 47.99 32.872 47.51C32.612 47.03 32.267 46.65 31.837 46.37C31.407 46.09 30.932 45.95 30.412 45.95C29.892 45.95 29.417 46.095 28.987 46.385C28.567 46.675 28.227 47.06 27.967 47.54C27.707 48.01 27.577 48.54 27.577 49.13ZM45.5793 45.185H46.5843L43.2243 53H42.3393L40.7043 49.115L39.0843 53H38.1993L34.8393 45.185H35.8293L38.6793 51.95L40.1193 48.425L38.7993 45.2H39.7143L40.7043 47.735L41.7093 45.2H42.6093L41.3043 48.425L42.7443 51.95L45.5793 45.185ZM50.7098 50.75C50.7098 50.26 50.8498 49.84 51.1298 49.49C51.4098 49.13 51.7948 48.855 52.2848 48.665C52.7848 48.465 53.3598 48.365 54.0098 48.365C54.3898 48.365 54.7848 48.395 55.1948 48.455C55.6048 48.515 55.9698 48.605 56.2898 48.725V48.065C56.2898 47.405 56.0948 46.88 55.7048 46.49C55.3148 46.1 54.7748 45.905 54.0848 45.905C53.6648 45.905 53.2498 45.985 52.8398 46.145C52.4398 46.295 52.0198 46.52 51.5798 46.82L51.1898 46.1C51.6998 45.75 52.1998 45.49 52.6898 45.32C53.1798 45.14 53.6798 45.05 54.1898 45.05C55.1498 45.05 55.9098 45.325 56.4698 45.875C57.0298 46.425 57.3098 47.185 57.3098 48.155V51.77C57.3098 51.91 57.3398 52.015 57.3998 52.085C57.4598 52.145 57.5548 52.18 57.6848 52.19V53C57.5748 53.01 57.4798 53.02 57.3998 53.03C57.3198 53.04 57.2598 53.04 57.2198 53.03C56.9698 53.02 56.7798 52.94 56.6498 52.79C56.5198 52.64 56.4498 52.48 56.4398 52.31L56.4248 51.74C56.0748 52.19 55.6198 52.54 55.0598 52.79C54.4998 53.03 53.9298 53.15 53.3498 53.15C52.8498 53.15 52.3948 53.045 51.9848 52.835C51.5848 52.615 51.2698 52.325 51.0398 51.965C50.8198 51.595 50.7098 51.19 50.7098 50.75ZM55.9448 51.35C56.0548 51.21 56.1398 51.075 56.1998 50.945C56.2598 50.815 56.2898 50.7 56.2898 50.6V49.46C55.9498 49.33 55.5948 49.23 55.2248 49.16C54.8648 49.09 54.4998 49.055 54.1298 49.055C53.3998 49.055 52.8098 49.2 52.3598 49.49C51.9098 49.78 51.6848 50.175 51.6848 50.675C51.6848 50.965 51.7598 51.24 51.9098 51.5C52.0598 51.75 52.2798 51.96 52.5698 52.13C52.8598 52.29 53.1998 52.37 53.5898 52.37C54.0798 52.37 54.5348 52.275 54.9548 52.085C55.3848 51.895 55.7148 51.65 55.9448 51.35ZM63.4137 46.085C62.7337 46.105 62.1337 46.295 61.6137 46.655C61.1037 47.015 60.7437 47.51 60.5337 48.14V53H59.5137V45.185H60.4737V47.06C60.7437 46.51 61.0987 46.065 61.5387 45.725C61.9887 45.385 62.4637 45.195 62.9637 45.155C63.0637 45.145 63.1487 45.14 63.2187 45.14C63.2987 45.14 63.3637 45.145 63.4137 45.155V46.085ZM67.8984 53.15C67.3384 53.15 66.8184 53.045 66.3384 52.835C65.8584 52.615 65.4434 52.32 65.0934 51.95C64.7434 51.57 64.4684 51.135 64.2684 50.645C64.0784 50.155 63.9834 49.63 63.9834 49.07C63.9834 48.34 64.1484 47.67 64.4784 47.06C64.8184 46.45 65.2834 45.965 65.8734 45.605C66.4634 45.235 67.1334 45.05 67.8834 45.05C68.6534 45.05 69.3234 45.235 69.8934 45.605C70.4734 45.975 70.9284 46.465 71.2584 47.075C71.5884 47.675 71.7534 48.335 71.7534 49.055C71.7534 49.135 71.7534 49.215 71.7534 49.295C71.7534 49.365 71.7484 49.42 71.7384 49.46H65.0484C65.0984 50.02 65.2534 50.52 65.5134 50.96C65.7834 51.39 66.1284 51.735 66.5484 51.995C66.9784 52.245 67.4434 52.37 67.9434 52.37C68.4534 52.37 68.9334 52.24 69.3834 51.98C69.8434 51.72 70.1634 51.38 70.3434 50.96L71.2284 51.2C71.0684 51.57 70.8234 51.905 70.4934 52.205C70.1634 52.505 69.7734 52.74 69.3234 52.91C68.8834 53.07 68.4084 53.15 67.8984 53.15ZM65.0184 48.725H70.7934C70.7534 48.155 70.5984 47.655 70.3284 47.225C70.0684 46.795 69.7234 46.46 69.2934 46.22C68.8734 45.97 68.4084 45.845 67.8984 45.845C67.3884 45.845 66.9234 45.97 66.5034 46.22C66.0834 46.46 65.7384 46.8 65.4684 47.24C65.2084 47.67 65.0584 48.165 65.0184 48.725ZM77.1902 55.4C77.3302 55.41 77.4652 55.415 77.5952 55.415C77.7252 55.425 77.8202 55.42 77.8802 55.4C78.0002 55.38 78.1152 55.31 78.2252 55.19C78.3352 55.07 78.4652 54.84 78.6152 54.5C78.7652 54.16 78.9752 53.66 79.2452 53L75.8402 45.185H76.9202L79.7852 51.95L82.4252 45.185H83.4452L79.3952 55.265C79.3252 55.455 79.2202 55.63 79.0802 55.79C78.9402 55.96 78.7652 56.09 78.5552 56.18C78.3552 56.28 78.1052 56.335 77.8052 56.345C77.7152 56.355 77.6202 56.355 77.5202 56.345C77.4302 56.345 77.3202 56.335 77.1902 56.315V55.4ZM87.9218 53.15C87.3618 53.15 86.8418 53.045 86.3618 52.835C85.8918 52.615 85.4818 52.32 85.1318 51.95C84.7918 51.57 84.5268 51.14 84.3368 50.66C84.1468 50.17 84.0518 49.655 84.0518 49.115C84.0518 48.555 84.1468 48.035 84.3368 47.555C84.5268 47.065 84.7968 46.635 85.1468 46.265C85.4968 45.885 85.9068 45.59 86.3768 45.38C86.8568 45.16 87.3768 45.05 87.9368 45.05C88.4968 45.05 89.0118 45.16 89.4818 45.38C89.9518 45.59 90.3618 45.885 90.7118 46.265C91.0618 46.635 91.3318 47.065 91.5218 47.555C91.7118 48.035 91.8068 48.555 91.8068 49.115C91.8068 49.655 91.7118 50.17 91.5218 50.66C91.3318 51.14 91.0618 51.57 90.7118 51.95C90.3718 52.32 89.9618 52.615 89.4818 52.835C89.0118 53.045 88.4918 53.15 87.9218 53.15ZM85.0868 49.13C85.0868 49.71 85.2118 50.24 85.4618 50.72C85.7218 51.19 86.0668 51.565 86.4968 51.845C86.9268 52.115 87.4018 52.25 87.9218 52.25C88.4418 52.25 88.9168 52.11 89.3468 51.83C89.7768 51.55 90.1218 51.17 90.3818 50.69C90.6418 50.2 90.7718 49.67 90.7718 49.1C90.7718 48.52 90.6418 47.99 90.3818 47.51C90.1218 47.03 89.7768 46.65 89.3468 46.37C88.9168 46.09 88.4418 45.95 87.9218 45.95C87.4018 45.95 86.9268 46.095 86.4968 46.385C86.0768 46.675 85.7368 47.06 85.4768 47.54C85.2168 48.01 85.0868 48.54 85.0868 49.13ZM93.4377 49.775V45.185H94.4577V49.595C94.4577 50.485 94.6077 51.15 94.9077 51.59C95.2177 52.03 95.6727 52.25 96.2727 52.25C96.6727 52.25 97.0577 52.165 97.4277 51.995C97.8077 51.815 98.1427 51.565 98.4327 51.245C98.7227 50.915 98.9427 50.535 99.0927 50.105V45.185H100.113V51.77C100.113 51.91 100.143 52.015 100.203 52.085C100.263 52.145 100.353 52.18 100.473 52.19V53C100.353 53.01 100.258 53.015 100.188 53.015C100.118 53.025 100.053 53.03 99.9927 53.03C99.7927 53.01 99.6177 52.93 99.4677 52.79C99.3277 52.65 99.2527 52.48 99.2427 52.28L99.2127 51.23C98.8727 51.83 98.4077 52.3 97.8177 52.64C97.2377 52.98 96.6077 53.15 95.9277 53.15C95.1077 53.15 94.4877 52.865 94.0677 52.295C93.6477 51.725 93.4377 50.885 93.4377 49.775ZM106.617 53V45.995H105.537V45.185H106.617V44.975C106.617 44.335 106.707 43.785 106.887 43.325C107.077 42.865 107.342 42.515 107.682 42.275C108.032 42.025 108.442 41.9 108.912 41.9C109.222 41.9 109.522 41.945 109.812 42.035C110.102 42.125 110.352 42.245 110.562 42.395L110.247 43.13C110.117 43.02 109.947 42.935 109.737 42.875C109.527 42.815 109.317 42.785 109.107 42.785C108.637 42.785 108.272 42.97 108.012 43.34C107.762 43.71 107.637 44.245 107.637 44.945V45.185H109.797V45.995H107.637V53H106.617ZM114.319 53.15C113.759 53.15 113.239 53.045 112.759 52.835C112.279 52.615 111.864 52.32 111.514 51.95C111.164 51.57 110.889 51.135 110.689 50.645C110.499 50.155 110.404 49.63 110.404 49.07C110.404 48.34 110.569 47.67 110.899 47.06C111.239 46.45 111.704 45.965 112.294 45.605C112.884 45.235 113.554 45.05 114.304 45.05C115.074 45.05 115.744 45.235 116.314 45.605C116.894 45.975 117.349 46.465 117.679 47.075C118.009 47.675 118.174 48.335 118.174 49.055C118.174 49.135 118.174 49.215 118.174 49.295C118.174 49.365 118.169 49.42 118.159 49.46H111.469C111.519 50.02 111.674 50.52 111.934 50.96C112.204 51.39 112.549 51.735 112.969 51.995C113.399 52.245 113.864 52.37 114.364 52.37C114.874 52.37 115.354 52.24 115.804 51.98C116.264 51.72 116.584 51.38 116.764 50.96L117.649 51.2C117.489 51.57 117.244 51.905 116.914 52.205C116.584 52.505 116.194 52.74 115.744 52.91C115.304 53.07 114.829 53.15 114.319 53.15ZM111.439 48.725H117.214C117.174 48.155 117.019 47.655 116.749 47.225C116.489 46.795 116.144 46.46 115.714 46.22C115.294 45.97 114.829 45.845 114.319 45.845C113.809 45.845 113.344 45.97 112.924 46.22C112.504 46.46 112.159 46.8 111.889 47.24C111.629 47.67 111.479 48.165 111.439 48.725ZM123.123 53.15C122.563 53.15 122.043 53.045 121.563 52.835C121.083 52.615 120.668 52.32 120.318 51.95C119.968 51.57 119.693 51.135 119.493 50.645C119.303 50.155 119.208 49.63 119.208 49.07C119.208 48.34 119.373 47.67 119.703 47.06C120.043 46.45 120.508 45.965 121.098 45.605C121.688 45.235 122.358 45.05 123.108 45.05C123.878 45.05 124.548 45.235 125.118 45.605C125.698 45.975 126.153 46.465 126.483 47.075C126.813 47.675 126.978 48.335 126.978 49.055C126.978 49.135 126.978 49.215 126.978 49.295C126.978 49.365 126.973 49.42 126.963 49.46H120.273C120.323 50.02 120.478 50.52 120.738 50.96C121.008 51.39 121.353 51.735 121.773 51.995C122.203 52.245 122.668 52.37 123.168 52.37C123.678 52.37 124.158 52.24 124.608 51.98C125.068 51.72 125.388 51.38 125.568 50.96L126.453 51.2C126.293 51.57 126.048 51.905 125.718 52.205C125.388 52.505 124.998 52.74 124.548 52.91C124.108 53.07 123.633 53.15 123.123 53.15ZM120.243 48.725H126.018C125.978 48.155 125.823 47.655 125.553 47.225C125.293 46.795 124.948 46.46 124.518 46.22C124.098 45.97 123.633 45.845 123.123 45.845C122.613 45.845 122.148 45.97 121.728 46.22C121.308 46.46 120.963 46.8 120.693 47.24C120.433 47.67 120.283 48.165 120.243 48.725ZM128.597 42.05H129.617V51.23C129.617 51.62 129.687 51.875 129.827 51.995C129.967 52.115 130.137 52.175 130.337 52.175C130.517 52.175 130.697 52.155 130.877 52.115C131.057 52.075 131.212 52.035 131.342 51.995L131.522 52.82C131.332 52.9 131.097 52.965 130.817 53.015C130.547 53.065 130.312 53.09 130.112 53.09C129.652 53.09 129.282 52.955 129.002 52.685C128.732 52.415 128.597 52.045 128.597 51.575V42.05ZM132.639 53V45.185H133.659V53H132.639ZM132.639 43.55V42.05H133.659V43.55H132.639ZM142.475 53H141.455V48.635C141.455 47.715 141.32 47.045 141.05 46.625C140.78 46.195 140.355 45.98 139.775 45.98C139.375 45.98 138.98 46.08 138.59 46.28C138.2 46.47 137.855 46.735 137.555 47.075C137.265 47.405 137.055 47.785 136.925 48.215V53H135.905V45.185H136.835V46.955C137.045 46.575 137.32 46.245 137.66 45.965C138 45.675 138.385 45.45 138.815 45.29C139.245 45.13 139.69 45.05 140.15 45.05C140.58 45.05 140.945 45.13 141.245 45.29C141.545 45.45 141.785 45.68 141.965 45.98C142.145 46.27 142.275 46.625 142.355 47.045C142.435 47.455 142.475 47.915 142.475 48.425V53ZM147.785 53.105C147.255 53.105 146.765 52.995 146.315 52.775C145.865 52.555 145.475 52.26 145.145 51.89C144.825 51.51 144.575 51.08 144.395 50.6C144.215 50.12 144.125 49.625 144.125 49.115C144.125 48.565 144.21 48.05 144.38 47.57C144.56 47.08 144.81 46.645 145.13 46.265C145.46 45.885 145.845 45.59 146.285 45.38C146.725 45.16 147.215 45.05 147.755 45.05C148.425 45.05 149.005 45.22 149.495 45.56C149.995 45.9 150.415 46.32 150.755 46.82V45.185H151.67V53.03C151.67 53.75 151.495 54.355 151.145 54.845C150.805 55.345 150.34 55.72 149.75 55.97C149.17 56.22 148.535 56.345 147.845 56.345C146.955 56.345 146.235 56.185 145.685 55.865C145.135 55.545 144.685 55.115 144.335 54.575L144.965 54.08C145.275 54.57 145.685 54.935 146.195 55.175C146.715 55.415 147.265 55.535 147.845 55.535C148.355 55.535 148.82 55.44 149.24 55.25C149.67 55.07 150.01 54.795 150.26 54.425C150.52 54.055 150.65 53.59 150.65 53.03V51.485C150.35 51.975 149.94 52.37 149.42 52.67C148.9 52.96 148.355 53.105 147.785 53.105ZM148.07 52.25C148.38 52.25 148.675 52.195 148.955 52.085C149.245 51.975 149.51 51.83 149.75 51.65C149.99 51.46 150.19 51.25 150.35 51.02C150.51 50.79 150.61 50.555 150.65 50.315V47.9C150.5 47.52 150.285 47.185 150.005 46.895C149.725 46.595 149.405 46.365 149.045 46.205C148.695 46.035 148.33 45.95 147.95 45.95C147.51 45.95 147.115 46.045 146.765 46.235C146.425 46.415 146.135 46.66 145.895 46.97C145.665 47.27 145.485 47.61 145.355 47.99C145.225 48.37 145.16 48.75 145.16 49.13C145.16 49.55 145.235 49.95 145.385 50.33C145.535 50.7 145.74 51.035 146 51.335C146.27 51.625 146.58 51.85 146.93 52.01C147.29 52.17 147.67 52.25 148.07 52.25ZM155.108 49.97C155.108 49.53 155.153 49.155 155.243 48.845C155.343 48.525 155.483 48.25 155.663 48.02C155.853 47.79 156.093 47.59 156.383 47.42C156.573 47.3 156.788 47.175 157.028 47.045C157.278 46.915 157.508 46.765 157.718 46.595C157.938 46.415 158.118 46.2 158.258 45.95C158.398 45.69 158.468 45.38 158.468 45.02C158.468 44.58 158.368 44.22 158.168 43.94C157.978 43.65 157.728 43.435 157.418 43.295C157.108 43.145 156.778 43.07 156.428 43.07C156.078 43.07 155.743 43.14 155.423 43.28C155.113 43.41 154.838 43.59 154.598 43.82C154.358 44.05 154.163 44.31 154.013 44.6L153.308 44.15C153.498 43.74 153.753 43.39 154.073 43.1C154.403 42.81 154.773 42.59 155.183 42.44C155.593 42.29 156.013 42.215 156.443 42.215C156.813 42.215 157.173 42.275 157.523 42.395C157.873 42.505 158.183 42.68 158.453 42.92C158.733 43.16 158.953 43.46 159.113 43.82C159.283 44.17 159.368 44.59 159.368 45.08C159.368 45.48 159.313 45.82 159.203 46.1C159.093 46.37 158.938 46.605 158.738 46.805C158.548 46.995 158.333 47.165 158.093 47.315C157.853 47.465 157.603 47.61 157.343 47.75C157.113 47.88 156.893 48.025 156.683 48.185C156.473 48.345 156.303 48.565 156.173 48.845C156.043 49.115 155.978 49.49 155.978 49.97H155.108ZM155.123 53V51.395H156.008V53H155.123Z" fill="white" fill-opacity="0.76"/>
</svg>
